<svg xmlns="http://www.w3.org/2000/svg" width="42" height="42" viewBox="0 0 21 21"><path d="M0 0h7v7h-7zM8 0h2v2h-1v-1h-1zM12 0h1v3h-1zM14 0h7v7h-7zM1 1v5h5v-5zM15 1v5h5v-5zM2 2h3v3h-3zM8 2h1v2h2v-1h1v2h-4zM10 2h1v1h-1zM16 2h3v3h-3zM8 6h1v1h-1zM10 6h1v1h1v1h-1v1h-1v-1h-1v-1h1zM12 6h1v1h-1zM0 8h4v1h1v2h1v1h-2v1h-1v-1h-3v-1h1v-2h-1zM6 8h1v1h-1zM8 8h1v1h-1zM12 8h2v1h-2zM16 8h3v1h-1v1h-2v1h-3v-1h2v-1h1zM20 8h1v4h-1v1h1v1h-3v1h1v1h1v2h-1v-1h-2v-2h-1v1h-1v-1h-1v3h-1v1h-2v2h-1v-2h-1v2h-1v-4h1v-2h1v-1h2v1h-1v3h1v-2h1v-2h1v-2h1v2h2v-1h2v-2h-1v-1h2zM2 9v2h1v-2zM9 9h1v1h-1zM6 10h1v1h-1zM8 11h2v1h-2zM16 11h2v1h-1v1h-1zM6 12h2v1h-2zM10 12h3v2h-1v-1h-2zM8 13h1v1h-1zM0 14h7v7h-7zM1 15v5h5v-5zM20 15h1v1h-1zM2 16h3v3h-3zM14 18h2v2h1v1h-3v-1h-1v-1h1zM17 18h1v1h-1zM20 19h1v1h-1zM12 20h1v1h-1zM18 20h1v1h-1z"/></svg>